<?xml version="1.0" encoding="iso-8859-1"?>
<!-- Generator: Adobe Illustrator 19.0.0, SVG Export Plug-In . SVG Version: 6.00 Build 0)  -->
<svg version="1.1" id="Layer_1" xmlns="http://www.w3.org/2000/svg" xmlns:xlink="http://www.w3.org/1999/xlink" x="0px" y="0px"
	 viewBox="0 0 490 490" style="enable-background:new 0 0 490 490;" xml:space="preserve">
<g>
	<g id="XMLID_26_">
		<g>
			<path style="fill:#FFFFFF;" d="M415,95v385H75V10h255v85H415z"/>
			<polygon style="fill:#B3B3B3;" points="415,95 330,95 330,10 			"/>
			<circle style="fill:#FFD248;" cx="244" cy="246" r="121"/>
		</g>
		<g>
			<path d="M424.976,95c-0.001-2.601-0.992-5.159-2.904-7.071l-85-85c-1.912-1.912-4.47-2.904-7.071-2.905V0H75
				c-5.523,0-10,4.477-10,10v470c0,5.523,4.477,10,10,10h340c5.522,0,10-4.477,10-10V95H424.976z M340,34.142L390.857,85H340V34.142
				z M85,470V20h235v75c0,5.523,4.478,10,10,10h75v365H85z"/>
			<g>
				<path d="M219.826,170.002c-4.044,0.07-7.648,2.57-9.13,6.333l-65,165l18.608,7.33L185.445,295h73.649l22.445,51.626
					l18.342-7.973l-70.711-162.64C227.558,172.303,223.914,169.959,219.826,170.002z M193.324,275l27.132-68.873L250.398,275
					H193.324z"/>
				<polygon points="335,185 315,185 315,165 295,165 295,185 275,185 275,205 295,205 295,225 315,225 315,205 335,205 				"/>
			</g>
			<g>
				<rect x="110" y="410" width="40" height="20"/>
			</g>
			<g>
				<rect x="170" y="410" width="40" height="20"/>
			</g>
			<g>
				<rect x="230" y="410" width="150" height="20"/>
			</g>
			<g>
				<rect x="110" y="40" width="40" height="20"/>
			</g>
			<g>
				<rect x="110" y="80" width="80" height="20"/>
			</g>
		</g>
	</g>
</g>
<g>
</g>
<g>
</g>
<g>
</g>
<g>
</g>
<g>
</g>
<g>
</g>
<g>
</g>
<g>
</g>
<g>
</g>
<g>
</g>
<g>
</g>
<g>
</g>
<g>
</g>
<g>
</g>
<g>
</g>
</svg>
