<?xml version="1.0"?>
<svg xmlns="http://www.w3.org/2000/svg" viewBox="0 0 512 512" width="512" height="512"><g id="Fill_out_line" data-name="Fill out line"><path d="M144,256h32a16,16,0,0,1,16,16V488a0,0,0,0,1,0,0H128a0,0,0,0,1,0,0V272A16,16,0,0,1,144,256Z" style="fill:#e88604"/><path d="M232,328h32a16,16,0,0,1,16,16V488a0,0,0,0,1,0,0H216a0,0,0,0,1,0,0V344A16,16,0,0,1,232,328Z" style="fill:#d14547"/><path d="M320,264h32a16,16,0,0,1,16,16V488a0,0,0,0,1,0,0H304a0,0,0,0,1,0,0V280A16,16,0,0,1,320,264Z" style="fill:#eebe33"/><path d="M456,488H392V176a16,16,0,0,1,16-16h32a16,16,0,0,1,16,16Z" style="fill:#4ba477"/><polygon points="392 24 392 56 416 56 264 208 168 112 40 240 64 264 168 160 264 256 440 80 440 104 472 104 472 24 392 24" style="fill:#4ba477"/><path d="M160,432a55.95523,55.95523,0,0,1-28,48.5l-.05.04A56.005,56.005,0,1,1,104,376v56Z" style="fill:#4ba477"/><path d="M128,352h.00006A55.99994,55.99994,0,0,1,184,407.99994V408a0,0,0,0,1,0,0H128a0,0,0,0,1,0,0V352A0,0,0,0,1,128,352Z" style="fill:#8acce7"/><path d="M132,480.5l-.05.04A56.01886,56.01886,0,0,1,48,432h56Z" style="fill:#eebe33"/><path d="M160,432a55.95523,55.95523,0,0,1-28,48.5L104,432Z" style="fill:#396795"/><path d="M120,408a7.99977,7.99977,0,0,0,8,8h56a7.99977,7.99977,0,0,0,8-8,64.0727,64.0727,0,0,0-64-64,7.99977,7.99977,0,0,0-8,8Zm16-47.3335A48.12616,48.12616,0,0,1,175.3335,400H136Z"/><path d="M200,360V272a24.0275,24.0275,0,0,0-24-24H144a24.0275,24.0275,0,0,0-24,24v56h16V272a8.00917,8.00917,0,0,1,8-8h32a8.00917,8.00917,0,0,1,8,8v88Z"/><path d="M464,176a24.02687,24.02687,0,0,0-24-24H408a24.02687,24.02687,0,0,0-24,24V480h-8V280a24.02687,24.02687,0,0,0-24-24H320a24.02687,24.02687,0,0,0-24,24V480h-8V344a24.0275,24.0275,0,0,0-24-24H232a24.0275,24.0275,0,0,0-24,24V480h-8V432H184v48H146.26416A63.85007,63.85007,0,0,0,168,432a7.99977,7.99977,0,0,0-8-8H112V376a7.99977,7.99977,0,0,0-8-8A63.95885,63.95885,0,0,0,61.73584,480H32v16H480V480H464ZM134.5769,468.96094,117.85645,440h33.477A48.00788,48.00788,0,0,1,134.5769,468.96094ZM96,384.6665V424H56.67749A48.11768,48.11768,0,0,1,96,384.6665ZM56.67944,440H99.38135l21.35449,36.9873A47.99053,47.99053,0,0,1,56.67944,440ZM224,480V344a8.00917,8.00917,0,0,1,8-8h32a8.00917,8.00917,0,0,1,8,8V480Zm88,0V280a8.00917,8.00917,0,0,1,8-8h32a8.00917,8.00917,0,0,1,8,8V480Zm88,0V176a8.00917,8.00917,0,0,1,8-8h32a8.00917,8.00917,0,0,1,8,8V480Z"/><path d="M472,16H392a7.99977,7.99977,0,0,0-8,8V56a7.99977,7.99977,0,0,0,8,8h4.68652L264,196.68652l-90.34326-90.34326a8,8,0,0,0-11.31348,0l-128,128a7.99915,7.99915,0,0,0,0,11.31348l24,24a7.99945,7.99945,0,0,0,11.31348,0L168,171.31348l90.34326,90.34326a8,8,0,0,0,11.31348,0L432,99.31348V104a7.99977,7.99977,0,0,0,8,8h32a7.99977,7.99977,0,0,0,8-8V24A7.99977,7.99977,0,0,0,472,16Zm-8,80H448V80a7.99981,7.99981,0,0,0-13.65674-5.65674L264,244.68652l-90.34326-90.34326a8,8,0,0,0-11.31348,0L64,252.68652,51.31348,240,168,123.31348l90.34326,90.34326a8,8,0,0,0,11.31348,0l152-152A7.99981,7.99981,0,0,0,416,48H400V32h64Z"/></g></svg>
